<?xml version="1.0" encoding="UTF-8" standalone="no"?>
<!-- Created with Inkscape (http://www.inkscape.org/) -->

<svg
   width="5.5in"
   height="5in"
   viewBox="0 0 139.7 127"
   version="1.1"
   id="svg5"
   inkscape:version="1.1.2 (b8e25be833, 2022-02-05)"
   sodipodi:docname="queso1.svg"
   xmlns:inkscape="http://www.inkscape.org/namespaces/inkscape"
   xmlns:sodipodi="http://sodipodi.sourceforge.net/DTD/sodipodi-0.dtd"
   xmlns="http://www.w3.org/2000/svg"
   xmlns:svg="http://www.w3.org/2000/svg">
  <sodipodi:namedview
     id="namedview7"
     pagecolor="#ffffff"
     bordercolor="#666666"
     borderopacity="1.0"
     inkscape:pageshadow="2"
     inkscape:pageopacity="0.0"
     inkscape:pagecheckerboard="0"
     inkscape:document-units="mm"
     showgrid="false"
     units="in"
     inkscape:zoom="1.0030105"
     inkscape:cx="148.55279"
     inkscape:cy="139.0813"
     inkscape:window-width="1842"
     inkscape:window-height="1051"
     inkscape:window-x="-9"
     inkscape:window-y="-9"
     inkscape:window-maximized="1"
     inkscape:current-layer="layer1" />
  <defs
     id="defs2" />
  <g
     inkscape:label="Capa 1"
     inkscape:groupmode="layer"
     id="layer1">
    <g
       id="g1019"
       transform="matrix(1.0891722,0,0,1.6168253,-4.8517818,-40.113182)">
      <path
         style="fill:#fde7a0;stroke-width:0.248116"
         d="M 102.99389,92.179927 90.024441,83.354044 v -6.180721 -6.180719 l -1.871214,0.0063 c -1.869772,0.0063 -1.870667,0.0067 -1.161444,0.413026 l 0.709771,0.406677 v 9.694084 9.694081 l -2.930305,1.206619 c -5.38141,2.215914 -10.688658,3.638741 -17.197388,4.61047 -4.188722,0.62536 -14.055424,0.867377 -18.766513,0.460318 C 28.31961,95.713998 12.352882,86.775936 9.2189284,75.32291 8.7202396,73.500452 8.6986435,72.823708 8.7786344,61.52574 L 8.8627513,49.645031 9.5606694,47.736868 C 13.216445,37.741695 26.307667,30.05016 44.354831,27.294126 c 3.056178,-0.466717 4.441132,-0.53101 11.600611,-0.538521 9.026578,-0.0095 10.983486,0.174296 17.679745,1.66024 9.53415,2.11569 17.114296,5.64134 22.543932,10.485553 2.569636,2.292579 4.740681,5.065355 5.797881,7.404841 1.22705,2.715323 1.46856,4.571494 1.46856,11.286746 v 6.179161 l 2.90361,0.148405 c 1.59698,0.08162 6.85251,0.315021 11.67896,0.51866 4.82644,0.203637 9.50125,0.428323 10.38846,0.499302 l 1.61311,0.129052 v 10.262592 c 0,11.283704 -0.0529,11.765616 -1.60235,14.605744 -1.2602,2.309882 -2.70411,4.122493 -4.83846,6.073931 -2.11632,1.934951 -6.59421,5.034568 -7.2384,5.010468 -0.21294,-0.008 -6.2234,-3.986137 -13.3566,-8.840373 z"
         id="path1033" />
      <path
         style="fill:#fdd944;stroke-width:0.248116"
         d="M 103.58095,92.435841 C 96.62869,87.713254 90.734366,83.676946 90.482457,83.466265 90.066784,83.118622 90.024441,82.524317 90.024441,77.037905 V 70.992604 H 88.89526 c -0.62105,0 -1.521168,-0.06227 -2.000264,-0.138385 l -0.871082,-0.138385 0.841146,0.675056 0.841148,0.675056 -0.0023,9.497466 -0.0023,9.497466 -2.428059,1.048569 C 71.614036,98.008356 53.405695,99.325454 37.501401,95.565032 24.214592,92.42349 14.253966,86.13403 10.52319,78.53012 8.9470682,75.317737 8.9066332,75.004435 8.7961711,65.148855 8.6702524,53.914173 8.9082798,49.851566 9.8358212,47.404308 12.094186,41.445764 17.997647,36.155547 26.661265,32.326668 c 3.601836,-1.591828 6.344969,-2.491021 10.864195,-3.561265 11.910311,-2.820601 25.167405,-2.818118 37.161024,0.007 14.969312,3.525999 25.409106,10.973113 28.031696,19.996105 0.45691,1.572012 0.55031,2.765014 0.66109,8.444215 l 0.129,6.613567 0.80747,0.116708 c 0.4441,0.06419 3.53685,0.225401 6.87278,0.35825 3.33592,0.132846 8.88073,0.371689 12.3218,0.530758 l 6.25649,0.289215 0.14647,0.729401 c 0.0806,0.401167 0.11025,5.183765 0.066,10.627993 l -0.0805,9.898595 -0.81271,1.949685 c -1.15242,2.764665 -2.88248,5.111436 -5.60361,7.601117 -1.99216,1.822715 -6.61991,5.145508 -7.11169,5.106298 -0.0821,-0.007 -5.83756,-3.875843 -12.78983,-8.598427 z"
         id="path1031" />
      <path
         style="fill:#fbcc33;stroke-width:0.248116"
         d="M 116.35049,91.050304 V 81.036666 l 2.25836,-1.434724 c 5.51368,-3.502808 9.53678,-8.063551 10.75382,-12.190929 0.35591,-1.207018 0.38162,-0.497262 0.3328,9.18682 l -0.0529,10.494896 -0.68277,1.497619 c -1.96688,4.31423 -5.62685,8.132114 -10.99619,11.470612 l -1.61311,1.00299 z M 50.112435,97.44702 C 31.774195,96.223942 16.275297,88.922834 10.830061,78.942161 9.0578386,75.693824 8.9775855,75.051934 9.0166673,64.438088 c 0.019331,-5.250086 0.083258,-9.277274 0.1420586,-8.949308 0.2390503,1.333322 1.2033181,3.786785 2.0557881,5.230709 4.588918,7.772749 15.771735,13.99824 29.771216,16.573678 5.899953,1.085397 7.523798,1.213413 15.22781,1.200495 6.248404,-0.01047 7.899793,-0.09091 10.969185,-0.534272 6.692809,-0.966744 12.749995,-2.586495 17.649778,-4.719726 1.332083,-0.579953 2.522562,-1.054458 2.64551,-1.054458 0.122947,0 0.223541,4.221159 0.223541,9.380355 v 9.380355 l -2.51646,1.109062 C 75.488195,96.328629 62.73685,98.289009 50.112435,97.44702 Z m 62.160095,-2.650083 c -0.43779,-0.404578 -0.38424,-1.267853 0.10177,-1.640605 0.35101,-0.269216 0.47991,-0.231768 0.87705,0.254792 0.42173,0.516688 0.42879,0.622254 0.075,1.121215 -0.44382,0.625983 -0.61601,0.669214 -1.05384,0.264598 z m -8.83623,-7.362423 c -0.22358,-0.386071 -0.19174,-0.625317 0.14678,-1.10277 l 0.43231,-0.609734 0.66729,0.61668 c 0.65197,0.602512 0.65637,0.627843 0.19129,1.102768 -0.60656,0.619394 -1.07626,0.617126 -1.43767,-0.0069 z m -5.799575,-3.564236 c -0.521367,-0.779596 -0.549226,-1.583618 -0.08463,-2.442408 0.435815,-0.805593 0.584477,-0.894451 1.496401,-0.894451 1.144564,0 1.816084,0.620134 1.816084,1.677127 0,0.8374 -0.49141,1.35108 -1.419547,1.483893 -0.425863,0.06094 -0.965799,0.186961 -1.199861,0.280051 -0.23616,0.09393 -0.506962,0.04754 -0.608449,-0.104212 z M 94.587,77.710764 c -0.210136,-0.218554 -0.525972,-0.847129 -0.701858,-1.396833 -0.286174,-0.894394 -0.258186,-1.139733 0.266226,-2.333793 0.322311,-0.733881 0.795558,-1.437965 1.051661,-1.564631 0.790832,-0.391135 2.991013,-0.278983 3.485127,0.17765 1.806514,1.669475 1.101151,4.839497 -1.076833,4.839497 -0.491095,0 -1.286505,0.151983 -1.767577,0.33774 -0.780663,0.30144 -0.915747,0.295031 -1.256746,-0.05963 z M 43.575795,75.778692 c -0.370635,-0.640005 -0.335252,-0.981943 0.153217,-1.480756 0.40236,-0.410878 0.442177,-0.403708 0.928053,0.167129 0.474764,0.557782 0.480587,0.634602 0.08985,1.185706 -0.502928,0.709338 -0.814693,0.743391 -1.171121,0.127921 z m 71.011545,-2.809983 c -0.7715,-0.345306 -0.94546,-0.659628 -0.82963,-1.499064 0.0467,-0.338568 2.28414,-2.396686 2.58195,-2.375034 0.0769,0.0056 0.64258,0.418263 1.257,0.917042 1.11577,0.905767 1.11669,0.907859 0.74975,1.719102 -0.20205,0.446727 -0.53054,0.931506 -0.72998,1.077285 -0.64216,0.469403 -2.15948,0.549885 -3.02909,0.160669 z M 56.736174,71.437647 c -0.680319,-1.385584 -0.645161,-2.006176 0.194116,-3.426548 0.683458,-1.156671 0.74743,-1.197673 2.123283,-1.360923 1.157474,-0.13734 1.53733,-0.08872 2.063663,0.26414 0.857607,0.574948 1.396736,1.930615 1.184181,2.977681 -0.269044,1.325353 -0.910138,1.8594 -2.494005,2.077577 -0.770019,0.10607 -1.661014,0.264082 -1.979987,0.351138 -0.497658,0.13582 -0.652507,0.01052 -1.091251,-0.883065 z M 66.589099,70.9449 c -0.430852,-0.398169 -0.386944,-1.265778 0.08227,-1.625652 0.320788,-0.246037 0.484872,-0.222964 0.903345,0.127024 0.635513,0.531504 0.645471,0.88319 0.03936,1.390103 -0.563481,0.471262 -0.625375,0.477814 -1.024975,0.108525 z m 20.33816,-0.175084 C 85.447939,70.610735 84.416601,69.9392 58.061086,51.974237 57.0189,51.263842 56.219618,50.633249 56.284902,50.572916 c 0.118477,-0.109488 41.484813,1.684282 45.031348,1.952699 l 1.87121,0.141621 v 5.620091 5.620091 L 98.993363,63.75 c -2.306756,-0.08658 -5.268436,-0.224467 -6.581512,-0.306413 l -2.38741,-0.148994 v 3.849005 3.849006 l -0.838821,-0.03507 c -0.461351,-0.0193 -1.477613,-0.103761 -2.258361,-0.187721 z m 12.315605,-4.307689 c -0.371546,-0.490217 -0.375435,-0.623018 -0.03603,-1.229573 0.209276,-0.374 0.432612,-0.68 0.496297,-0.68 0.06369,0 0.290753,0.312669 0.504589,0.694819 0.35497,0.634352 0.34802,0.741355 -0.0798,1.229573 l -0.468563,0.534755 z M 23.197761,63.979444 c -0.47304,-0.526743 0.113691,-1.488248 0.654875,-1.073174 0.423548,0.324848 0.386626,1.202832 -0.05624,1.337395 -0.156137,0.04744 -0.425521,-0.07146 -0.598632,-0.264221 z m 10.41185,-2.880608 c -0.230647,-0.325311 -0.52369,-1.020597 -0.651206,-1.54508 -0.197938,-0.814134 -0.130517,-1.144538 0.460982,-2.2591 0.681819,-1.284745 0.714192,-1.307963 2.036888,-1.460685 0.73923,-0.08536 1.590852,-0.0828 1.892494,0.0057 0.830571,0.243618 1.656334,1.922768 1.494367,3.03873 -0.207816,1.431848 -0.801272,2.096375 -1.872172,2.096375 -0.498127,0 -1.322643,0.161001 -1.832259,0.357781 -1.155884,0.446324 -1.033718,0.464995 -1.529094,-0.233693 z m 12.53098,-0.01274 c -0.180625,-0.201132 -0.379624,-0.871971 -0.44222,-1.490752 -0.09825,-0.971186 -0.0045,-1.2637 0.685574,-2.138769 0.629053,-0.79771 0.962093,-1.013712 1.562982,-1.013712 0.982989,0 1.297954,0.547297 1.297954,2.255377 0,1.226386 -0.0566,1.355156 -0.709771,1.614831 -0.390374,0.155195 -0.917547,0.474899 -1.171498,0.710447 -0.564415,0.523521 -0.798322,0.53549 -1.223021,0.06258 z M 21.932922,59.762294 c -0.281554,-0.41664 -0.269778,-0.590001 0.07291,-1.073341 0.504936,-0.712172 0.499143,-0.712399 1.032616,0.04003 0.411504,0.580396 0.410901,0.643208 -0.01032,1.073342 -0.564152,0.576093 -0.681761,0.571795 -1.095213,-0.04003 z m 31.057482,-6.649709 c -0.172266,-0.501589 0.246228,-1.440131 0.642151,-1.440131 0.395923,0 0.814417,0.938542 0.642152,1.440131 -0.08841,0.257418 -0.377376,0.468032 -0.642152,0.468032 -0.264775,0 -0.553745,-0.210614 -0.642151,-0.468032 z M 22.311503,46.940761 c -0.401103,-0.409595 -0.398164,-0.464314 0.04485,-0.834822 0.581647,-0.486452 0.922219,-0.500344 1.323092,-0.05396 0.228331,0.254253 0.234136,0.46941 0.02252,0.834821 -0.352652,0.608952 -0.828873,0.627435 -1.390458,0.05396 z M 18.07949,46.028518 c -0.538689,-0.200877 -0.366704,-0.663051 0.553432,-1.487232 1.502077,-1.345433 2.734605,-0.437029 1.293334,0.953221 -0.687288,0.662958 -1.14559,0.795479 -1.846766,0.534011 z M 41.046804,40.66155 c -0.704317,-0.650891 -0.149997,-1.716722 0.595477,-1.144965 0.459864,0.352703 0.467019,0.500483 0.04977,1.02782 -0.258979,0.32731 -0.391747,0.351415 -0.645246,0.117145 z M 76.66301,40.64089 c -0.143887,-0.163983 -0.448319,-0.811327 -0.676512,-1.43854 -0.412204,-1.132984 -0.409969,-1.149416 0.343939,-2.529614 l 0.758841,-1.389221 1.445119,-0.156961 c 0.853862,-0.09274 1.650945,-0.05516 1.948187,0.09185 1.151831,0.56968 1.670671,2.609571 1.028274,4.042811 -0.311821,0.695702 -1.512524,1.33938 -2.119863,1.136425 -0.184657,-0.0617 -0.727394,0.03487 -1.206079,0.214604 -1.068463,0.401189 -1.192962,0.403532 -1.521906,0.02865 z M 49.554599,38.506129 c -0.407292,-0.376397 -0.380545,-1.157849 0.05792,-1.692125 0.331293,-0.403684 0.381563,-0.392321 0.885941,0.200252 0.497341,0.584306 0.506222,0.66841 0.127083,1.203159 -0.461031,0.650249 -0.630344,0.695893 -1.070944,0.288714 z m -9.842095,-2.188424 c -0.249808,-0.431364 -0.258044,-0.687385 -0.03453,-1.073342 0.16144,-0.27877 0.401498,-0.506855 0.533464,-0.506855 0.131965,0 0.372023,0.228085 0.533463,0.506855 0.223511,0.385957 0.215275,0.641978 -0.03453,1.073342 -0.180432,0.311567 -0.404952,0.566486 -0.49893,0.566486 -0.09398,0 -0.318499,-0.254919 -0.498931,-0.566486 z m 20.107464,-1.878348 c -0.661411,-1.346591 -0.636016,-1.837616 0.173979,-3.363884 l 0.683226,-1.287399 1.445289,-0.137851 c 1.791449,-0.170868 2.398269,0.150397 2.99037,1.583187 0.351618,0.850861 0.380283,1.228258 0.152637,2.009546 -0.357353,1.226438 -0.782415,1.540345 -2.220511,1.639839 -0.638608,0.04418 -1.383989,0.190568 -1.656407,0.325304 -0.817759,0.404452 -1.047688,0.291767 -1.568583,-0.768742 z"
         id="path1029" />
      <path
         style="fill:#fab813;stroke-width:0.248116"
         d="m 116.35049,90.931719 v -9.875931 l 1.14918,-0.622381 c 0.63206,-0.342312 1.99675,-1.248652 3.03266,-2.014092 4.53921,-3.35405 7.27909,-6.616298 8.74159,-10.408216 0.45545,-1.180883 0.46016,-1.098095 0.47883,8.425418 l 0.0189,9.618021 -0.66015,1.830956 c -1.56348,4.336353 -5.15768,8.313559 -10.62,11.751696 -1.02276,0.64375 -1.92288,1.17046 -2.00027,1.17046 -0.0774,0 -0.1407,-4.444168 -0.1407,-9.875931 z M 51.261407,97.46006 C 39.709469,96.795773 28.856033,93.745181 20.986183,88.950555 17.524012,86.841262 13.150313,82.78382 11.606437,80.249048 10.991807,79.239932 10.182359,77.62992 9.8076647,76.671242 L 9.1264014,74.92819 9.0625814,65.268115 c -0.058633,-8.874954 -0.032947,-9.553454 0.3160432,-8.348213 0.6149859,2.123859 2.2824214,4.983707 4.1672964,7.147397 9.709153,11.145362 32.242531,16.938283 54.218047,13.938472 5.853963,-0.799106 13.060397,-2.788551 17.731342,-4.895004 1.128812,-0.509059 2.087003,-0.925561 2.129313,-0.925561 0.04231,0 0.07693,4.224253 0.07693,9.387231 v 9.387232 l -2.554416,1.09567 C 75.550458,96.171659 63.17676,98.145243 51.261406,97.46006 Z M 112.2149,94.595738 c -0.23008,-0.397294 -0.23293,-0.673586 -0.0116,-1.122582 0.28358,-0.575173 0.31102,-0.581045 0.80085,-0.171382 0.63735,0.533041 0.64021,0.880661 0.0116,1.406429 -0.47334,0.395874 -0.50939,0.39081 -0.80084,-0.112465 z m -8.46143,-6.956082 c -0.39979,-0.369468 -0.39141,-0.946515 0.0213,-1.46814 0.30779,-0.388991 0.36671,-0.379217 0.90479,0.150098 l 0.57557,0.566188 -0.59688,0.518204 c -0.4623,0.401359 -0.66631,0.454043 -0.90479,0.23365 z m -6.263417,-4.410027 c -0.806267,-1.959781 1.963161,-3.811021 2.980747,-1.992494 0.21658,0.387045 0.39378,0.858156 0.39378,1.046918 0,0.650345 -0.899095,1.299579 -2.005196,1.447948 -1.025746,0.13759 -1.120321,0.10289 -1.369331,-0.502372 z m -3.02794,-5.714867 c -0.138764,-0.241938 -0.37768,-0.86263 -0.530929,-1.379315 -0.244303,-0.823685 -0.197182,-1.107152 0.382451,-2.30077 l 0.66108,-1.361343 1.381963,-0.159566 c 1.629907,-0.188197 2.268489,0.0601 2.856319,1.110611 0.508616,0.908948 0.373788,2.906158 -0.234116,3.46795 -0.225047,0.207975 -1.025237,0.463171 -1.778201,0.567104 -0.752963,0.10393 -1.620404,0.257871 -1.927647,0.34209 -0.394591,0.108165 -0.632708,0.02396 -0.81092,-0.286761 z M 43.569897,75.529984 c -0.19904,-0.343698 -0.184669,-0.602374 0.053,-0.954081 0.414377,-0.613191 0.594943,-0.606424 1.0854,0.04069 0.358429,0.472912 0.35599,0.564651 -0.02537,0.954081 -0.540182,0.551617 -0.774998,0.543032 -1.113037,-0.04069 z m 70.938923,-2.718839 c -1.02758,-0.471636 -0.92138,-1.271263 0.32464,-2.444571 1.2031,-1.132872 1.86542,-1.302004 2.28196,-0.582725 0.1468,0.253488 0.49932,0.529055 0.78338,0.612373 0.28774,0.0844 0.51647,0.360886 0.51647,0.624301 0,0.529441 -0.6857,1.868127 -0.97449,1.902484 -1.33035,0.158263 -2.43527,0.116106 -2.93196,-0.111862 z M 57.097471,71.833519 c -0.8541,-1.204642 -0.908649,-2.242289 -0.187367,-3.564059 0.363893,-0.666844 0.791575,-1.291299 0.950401,-1.387681 0.158826,-0.09638 0.869495,-0.175236 1.579266,-0.175236 0.709771,0 1.413368,0.07886 1.56355,0.175236 1.213334,0.778667 1.55071,3.094542 0.611554,4.197918 -0.385129,0.452476 -0.773825,0.628468 -1.388022,0.628468 -0.4692,0 -1.270877,0.161321 -1.781502,0.358489 -0.900242,0.347612 -0.94114,0.340538 -1.34788,-0.233135 z M 66.589099,70.9449 c -0.399162,-0.368884 -0.381725,-0.918036 0.04566,-1.438116 0.315734,-0.384208 0.379993,-0.372115 0.937658,0.176462 l 0.598693,0.588941 -0.59821,0.479468 c -0.707001,0.566668 -0.60204,0.54605 -0.983804,0.193245 z M 87.699866,70.77421 85.762437,70.634823 71.132561,60.736228 C 63.08613,55.292001 56.495629,50.783965 56.487003,50.718372 c -0.0086,-0.06559 0.536073,-0.08977 1.210443,-0.05374 4.141882,0.221335 43.558044,1.961901 44.428384,1.961901 h 1.06163 v 5.609463 5.609462 l -2.77456,-0.143892 c -5.956176,-0.308898 -10.176976,-0.457549 -10.280306,-0.36206 -0.05948,0.05497 -0.108153,1.799408 -0.108153,3.876524 0,2.077114 -0.08711,3.758795 -0.193574,3.737068 -0.106466,-0.02173 -1.065415,-0.102227 -2.131001,-0.17889 z m 11.661599,-4.366872 c -0.403462,-0.372857 -0.385155,-1.018243 0.03809,-1.342862 0.411634,-0.31571 0.948825,0.08014 0.948825,0.699179 0,0.59477 -0.609611,0.992367 -0.986915,0.643683 z M 23.193269,63.97444 c -0.241498,-0.268912 -0.241558,-0.464096 -2.58e-4,-0.880748 0.298987,-0.516285 0.322513,-0.519438 0.663156,-0.08892 0.441548,0.558047 0.441586,0.705999 2.59e-4,1.044476 -0.267733,0.205342 -0.427781,0.187288 -0.663157,-0.07481 z m 10.285478,-3.149776 c -0.765765,-1.800946 -0.763488,-1.989477 0.04183,-3.463788 l 0.773712,-1.416448 1.706072,0.07032 c 1.511045,0.06229 1.765654,0.144264 2.227295,0.717126 0.703452,0.872934 0.70346,2.603862 1.2e-5,3.476811 -0.377525,0.468495 -0.834073,0.68758 -1.65613,0.794733 -0.624208,0.08136 -1.509935,0.228493 -1.968282,0.326957 -0.755415,0.162277 -0.860585,0.114979 -1.124507,-0.505716 z m 12.700941,0.205323 c -0.464595,-0.802256 -0.603434,-2.13735 -0.282176,-2.713477 0.495187,-0.888047 1.594875,-1.873649 2.09053,-1.873649 0.714019,0 1.256839,0.948768 1.256839,2.196763 0,1.062501 -0.06584,1.174949 -1.010698,1.726168 -0.555885,0.324294 -1.085389,0.701309 -1.176676,0.837812 -0.247971,0.370789 -0.603236,0.300524 -0.877819,-0.173617 z M 22.19002,59.967288 c -0.390434,-0.360819 -0.374188,-0.914186 0.04168,-1.419642 0.304821,-0.370486 0.351347,-0.36637 0.637038,0.05639 0.401558,0.594223 0.390356,1.056683 -0.03347,1.381746 -0.249503,0.191362 -0.42356,0.186372 -0.645246,-0.01851 z M 53.142413,53.25185 c -0.206989,-0.230492 -0.218348,-0.515693 -0.03799,-0.954082 0.321237,-0.780822 0.603117,-0.790893 1.039624,-0.03714 0.276219,0.476971 0.27849,0.65735 0.012,0.954081 -0.405782,0.451851 -0.633714,0.460204 -1.01364,0.03714 z M 22.517084,47.040932 c -0.48543,-0.32803 -0.485552,-0.343703 -0.0065,-0.832904 0.602007,-0.61475 0.833084,-0.624978 1.165154,-0.05156 0.19675,0.339746 0.148149,0.539623 -0.202524,0.832906 -0.400102,0.33462 -0.527124,0.34147 -0.956138,0.05156 z m -4.388263,-1.19555 c -0.484778,-0.330055 -0.472197,-0.368678 0.388447,-1.192602 0.949149,-0.90865 1.667636,-1.086837 1.921094,-0.476439 0.205124,0.493999 -0.184105,1.134054 -0.984293,1.618585 -0.780653,0.472704 -0.709067,0.469978 -1.325248,0.05046 z m 58.796477,-5.110871 c -0.36697,-0.213059 -1.097541,-1.89364 -1.090245,-2.507956 0.0033,-0.27915 0.323173,-1.044214 0.710793,-1.700145 l 0.704761,-1.192602 h 1.666338 c 1.606829,0 1.687446,0.02895 2.257343,0.810464 0.731575,1.003241 0.761289,2.267792 0.07763,3.304013 -0.422265,0.640029 -0.671051,0.775191 -1.426866,0.775191 -0.503486,0 -1.30251,0.149464 -1.775612,0.332144 -0.4731,0.182681 -0.978965,0.263181 -1.124145,0.178891 z M 40.855253,40.459862 c -0.201745,-0.301669 0.08837,-1.190467 0.388575,-1.190467 0.30021,0 0.590321,0.888798 0.388575,1.190467 -0.08852,0.132359 -0.263376,0.240655 -0.388575,0.240655 -0.125198,0 -0.300057,-0.108296 -0.388575,-0.240655 z m 8.666423,-2.231523 c -0.25107,-0.433547 -0.259631,-0.689589 -0.03596,-1.075813 0.370521,-0.639807 0.554984,-0.62867 1.101376,0.06649 0.420161,0.534556 0.413832,0.58008 -0.148531,1.068316 l -0.587391,0.509969 z m -9.813611,-2.03756 c -0.199533,-0.34455 -0.152745,-0.581217 0.192893,-0.975685 l 0.456328,-0.520792 0.353125,0.609773 c 0.286789,0.495218 0.291396,0.678514 0.02452,0.975684 -0.435614,0.485067 -0.708107,0.461456 -1.026868,-0.08898 z m 20.478031,-1.339986 c -0.881561,-1.243376 -0.902518,-2.223881 -0.07972,-3.730187 l 0.760371,-1.392026 h 1.526441 c 1.629076,0 2.172552,0.283312 2.61732,1.364403 0.739906,1.798477 -0.1345,3.644525 -1.726279,3.644525 -0.491094,0 -1.296622,0.155889 -1.79006,0.346422 -0.860113,0.332118 -0.914125,0.322491 -1.308069,-0.233137 z"
         id="path1027" />
      <path
         style="fill:#cd9735;stroke-width:0.248116"
         d="m 112.2149,94.595738 c -0.23008,-0.397294 -0.23293,-0.673586 -0.0116,-1.122582 0.28358,-0.575173 0.31102,-0.581045 0.80085,-0.171382 0.63735,0.533041 0.64021,0.880661 0.0116,1.406429 -0.47334,0.395874 -0.50939,0.39081 -0.80084,-0.112465 z m 8.52326,-1.251161 c -0.54197,-0.252343 -0.65755,-0.49509 -0.72212,-1.516548 -0.075,-1.185626 -0.0459,-1.241349 1.15999,-2.222268 1.07812,-0.877009 1.35071,-0.989078 2.12379,-0.873138 2.0819,0.312219 2.22721,1.661695 0.38496,3.575068 -1.31857,1.369483 -1.83898,1.55261 -2.94662,1.036886 z M 60.133589,92.064505 c -0.139549,-0.241939 -0.384226,-0.889078 -0.543726,-1.438087 -0.262256,-0.902714 -0.223005,-1.124435 0.410341,-2.317843 0.648087,-1.221186 0.780267,-1.33072 1.771709,-1.468117 1.652351,-0.228989 2.241789,-0.06062 2.885484,0.824214 0.691366,0.95037 0.773085,2.343849 0.197747,3.372032 -0.384074,0.68638 -0.619462,0.786435 -2.44724,1.040218 -0.49684,0.06898 -1.154725,0.193388 -1.461968,0.27645 -0.393043,0.106259 -0.633831,0.02063 -0.812347,-0.288867 z M 36.381496,92.00612 c -0.525342,-0.300049 -0.858191,-2.0357 -0.539759,-2.814591 0.393427,-0.962341 1.531654,-1.97954 2.215068,-1.97954 0.793416,0 1.122236,0.660838 1.122236,2.255377 0,1.227173 -0.05618,1.354734 -0.709771,1.611582 -0.390374,0.153409 -0.943856,0.46817 -1.229958,0.699471 -0.316625,0.255973 -0.652308,0.345079 -0.857816,0.227701 z m 10.838825,-1.379943 c -0.25862,-0.427073 0.11602,-1.506025 0.52293,-1.506025 0.122213,0 0.352935,0.265156 0.512716,0.589238 0.222137,0.450554 0.213395,0.675106 -0.03714,0.954082 -0.423333,0.471393 -0.696649,0.461184 -0.99851,-0.0373 z m 26.366233,-2.977598 c -0.285772,-0.329356 -0.529138,-0.954558 -0.742821,-1.908287 -0.07154,-0.319295 0.167733,-1.129263 0.5624,-1.903817 0.684185,-1.342746 0.692341,-1.348718 2.056719,-1.506256 0.834412,-0.09634 1.576146,-0.05611 1.897713,0.102931 1.207264,0.597095 1.681068,2.703879 0.9157,4.071667 -0.376857,0.673481 -0.609982,0.777822 -2.318191,1.037568 -0.425863,0.06476 -1.071721,0.18654 -1.43524,0.27063 -0.416258,0.09629 -0.762874,0.03542 -0.93628,-0.164436 z m 30.166916,-0.0089 c -0.39979,-0.369468 -0.39141,-0.946515 0.0213,-1.46814 0.30779,-0.388991 0.36671,-0.379217 0.90479,0.150098 l 0.57557,0.566188 -0.59688,0.518204 c -0.4623,0.401359 -0.66631,0.454043 -0.90479,0.23365 z m -85.233987,-2.46812 c -0.278674,-0.31031 -0.239305,-0.456194 0.241381,-0.894451 0.558875,-0.509541 0.584133,-0.511519 0.936626,-0.0733 0.704977,0.876419 -0.425792,1.805367 -1.178007,0.967755 z m 5.188153,-0.796767 c -0.39205,-0.676985 0.359799,-1.212483 0.944148,-0.672461 0.343617,0.317554 0.35841,0.449687 0.08449,0.754703 -0.438476,0.488253 -0.710871,0.466474 -1.028641,-0.08224 z M 125.39301,84.126905 c -0.14695,-0.253748 -0.26718,-0.964047 -0.26718,-1.578445 0,-0.985356 0.12182,-1.22966 1.03307,-2.071783 0.97387,-0.899994 1.0663,-0.934349 1.61311,-0.599514 0.82702,0.50642 1.17827,2.350461 0.60241,3.162664 -0.23177,0.326897 -0.57494,0.594357 -0.7626,0.594357 -0.18766,0 -0.55141,0.214668 -0.80835,0.47704 -0.58908,0.601553 -1.06809,0.606877 -1.41046,0.01567 z m -5.16168,-0.483457 -0.76976,-0.761519 0.55778,-0.697215 c 0.65992,-0.824877 1.04797,-0.87006 1.76684,-0.205723 0.67026,0.619416 0.57268,1.597609 -0.2068,2.073159 -0.53984,0.329351 -0.62951,0.302165 -1.34806,-0.408702 z M 97.490053,83.229629 c -0.806267,-1.959781 1.963161,-3.811021 2.980747,-1.992494 0.21658,0.387045 0.39378,0.858156 0.39378,1.046918 0,0.650345 -0.899095,1.299579 -2.005196,1.447948 -1.025746,0.13759 -1.120321,0.10289 -1.369331,-0.502372 z M 38.404745,82.322322 c -0.256813,-0.28597 -0.254655,-0.431997 0.01076,-0.727533 0.281467,-0.31342 0.386027,-0.319872 0.686333,-0.04235 0.345795,0.319565 0.21903,1.12766 -0.176896,1.12766 -0.109387,0 -0.343469,-0.161001 -0.520187,-0.35778 z M 15.549247,78.843166 c -0.223848,-0.334721 1.398899,-1.887553 1.972538,-1.887553 0.782299,0 0.815704,0.746574 0.06577,1.469958 -0.71018,0.68504 -1.720963,0.892121 -2.038309,0.417595 z m 78.912866,-1.328404 c -0.138764,-0.241938 -0.37768,-0.86263 -0.530929,-1.379315 -0.244303,-0.823685 -0.197182,-1.107152 0.382451,-2.30077 l 0.66108,-1.361343 1.381963,-0.159566 c 1.629907,-0.188197 2.268489,0.0601 2.856319,1.110611 0.508616,0.908948 0.373788,2.906158 -0.234116,3.46795 -0.225047,0.207975 -1.025237,0.463171 -1.778201,0.567104 -0.752963,0.10393 -1.620404,0.257871 -1.927647,0.34209 -0.394591,0.108165 -0.632708,0.02396 -0.81092,-0.286761 z M 43.569897,75.529984 c -0.19904,-0.343698 -0.184669,-0.602374 0.053,-0.954081 0.414377,-0.613191 0.594943,-0.606424 1.0854,0.04069 0.358429,0.472912 0.35599,0.564651 -0.02537,0.954081 -0.540182,0.551617 -0.774998,0.543032 -1.113037,-0.04069 z M 13.162714,74.045665 c -0.445944,-0.412118 -0.383559,-0.770686 0.222236,-1.277337 0.455257,-0.38075 0.566324,-0.394677 0.770343,-0.0966 0.431307,0.630157 0.103723,1.660159 -0.528002,1.660159 -0.08517,0 -0.294232,-0.128801 -0.464577,-0.286224 z m 101.346106,-1.23452 c -1.02758,-0.471636 -0.92138,-1.271263 0.32464,-2.444571 1.2031,-1.132872 1.86542,-1.302004 2.28196,-0.582725 0.1468,0.253488 0.49932,0.529055 0.78338,0.612373 0.28774,0.0844 0.51647,0.360886 0.51647,0.624301 0,0.529441 -0.6857,1.868127 -0.97449,1.902484 -1.33035,0.158263 -2.43527,0.116106 -2.93196,-0.111862 z M 57.097471,71.833519 c -0.8541,-1.204642 -0.908649,-2.242289 -0.187367,-3.564059 0.363893,-0.666844 0.791575,-1.291299 0.950401,-1.387681 0.158826,-0.09638 0.869495,-0.175236 1.579266,-0.175236 0.709771,0 1.413368,0.07886 1.56355,0.175236 1.213334,0.778667 1.55071,3.094542 0.611554,4.197918 -0.385129,0.452476 -0.773825,0.628468 -1.388022,0.628468 -0.4692,0 -1.270877,0.161321 -1.781502,0.358489 -0.900242,0.347612 -0.94114,0.340538 -1.34788,-0.233135 z M 66.589099,70.9449 c -0.399162,-0.368884 -0.381725,-0.918036 0.04566,-1.438116 0.315734,-0.384208 0.379993,-0.372115 0.937658,0.176462 l 0.598693,0.588941 -0.59821,0.479468 c -0.707001,0.566668 -0.60204,0.54605 -0.983804,0.193245 z m -53.81963,-0.621372 c -0.478187,-0.488308 -0.554368,-0.902904 -0.202803,-1.103703 0.328241,-0.187474 1.05347,0.920503 0.825571,1.261279 -0.13761,0.205769 -0.309563,0.162261 -0.622768,-0.157576 z m 70.186947,-3.496639 c -0.548374,-0.773438 -0.53082,-0.899616 0.215283,-1.547373 0.722771,-0.627501 1.216748,-0.537682 1.834466,0.333561 0.4007,0.565155 0.401356,0.652158 0.0091,1.20542 -0.551136,0.777334 -1.51088,0.781245 -2.058839,0.0084 z m 16.405049,-0.419551 c -0.403462,-0.372857 -0.385155,-1.018243 0.03809,-1.342862 0.411634,-0.31571 0.948825,0.08014 0.948825,0.699179 0,0.59477 -0.609611,0.992367 -0.986915,0.643683 z M 23.193269,63.97444 c -0.241498,-0.268912 -0.241558,-0.464096 -2.58e-4,-0.880748 0.298987,-0.516285 0.322513,-0.519438 0.663156,-0.08892 0.441548,0.558047 0.441586,0.705999 2.59e-4,1.044476 -0.267733,0.205342 -0.427781,0.187288 -0.663157,-0.07481 z m 10.285478,-3.149776 c -0.765765,-1.800946 -0.763488,-1.989477 0.04183,-3.463788 l 0.773712,-1.416448 1.706072,0.07032 c 1.511045,0.06229 1.765654,0.144264 2.227295,0.717126 0.703452,0.872934 0.70346,2.603862 1.2e-5,3.476811 -0.377525,0.468495 -0.834073,0.68758 -1.65613,0.794733 -0.624208,0.08136 -1.509935,0.228493 -1.968282,0.326957 -0.755415,0.162277 -0.860585,0.114979 -1.124507,-0.505716 z m 12.700941,0.205323 c -0.464595,-0.802256 -0.603434,-2.13735 -0.282176,-2.713477 0.495187,-0.888047 1.594875,-1.873649 2.09053,-1.873649 0.714019,0 1.256839,0.948768 1.256839,2.196763 0,1.062501 -0.06584,1.174949 -1.010698,1.726168 -0.555885,0.324294 -1.085389,0.701309 -1.176676,0.837812 -0.247971,0.370789 -0.603236,0.300524 -0.877819,-0.173617 z M 22.19002,59.967288 c -0.390434,-0.360819 -0.374188,-0.914186 0.04168,-1.419642 0.304821,-0.370486 0.351347,-0.36637 0.637038,0.05639 0.401558,0.594223 0.390356,1.056683 -0.03347,1.381746 -0.249503,0.191362 -0.42356,0.186372 -0.645246,-0.01851 z M 53.142413,53.25185 c -0.206989,-0.230492 -0.218348,-0.515693 -0.03799,-0.954082 0.321237,-0.780822 0.603117,-0.790893 1.039624,-0.03714 0.276219,0.476971 0.27849,0.65735 0.012,0.954081 -0.405782,0.451851 -0.633714,0.460204 -1.01364,0.03714 z m 23.726841,-0.254 c -0.272622,-0.470763 -0.262024,-0.653613 0.06272,-1.082084 l 0.390781,-0.515595 0.402301,0.530798 c 0.284835,0.375811 0.330121,0.655445 0.155091,0.957679 -0.396909,0.685379 -0.660719,0.713877 -1.010893,0.109202 z m -54.35217,-5.956918 c -0.48543,-0.32803 -0.485552,-0.343703 -0.0065,-0.832904 0.602007,-0.61475 0.833084,-0.624978 1.165154,-0.05156 0.19675,0.339746 0.148149,0.539623 -0.202524,0.832906 -0.400102,0.33462 -0.527124,0.34147 -0.956138,0.05156 z m -4.388263,-1.19555 c -0.484778,-0.330055 -0.472197,-0.368678 0.388447,-1.192602 0.949149,-0.90865 1.667636,-1.086837 1.921094,-0.476439 0.205124,0.493999 -0.184105,1.134054 -0.984293,1.618585 -0.780653,0.472704 -0.709067,0.469978 -1.325248,0.05046 z m 58.796477,-5.110871 c -0.36697,-0.213059 -1.097541,-1.89364 -1.090245,-2.507956 0.0033,-0.27915 0.323173,-1.044214 0.710793,-1.700145 l 0.704761,-1.192602 h 1.666338 c 1.606829,0 1.687446,0.02895 2.257343,0.810464 0.731575,1.003241 0.761289,2.267792 0.07763,3.304013 -0.422265,0.640029 -0.671051,0.775191 -1.426866,0.775191 -0.503486,0 -1.30251,0.149464 -1.775612,0.332144 -0.4731,0.182681 -0.978965,0.263181 -1.124145,0.178891 z M 40.855253,40.459862 c -0.201745,-0.301669 0.08837,-1.190467 0.388575,-1.190467 0.30021,0 0.590321,0.888798 0.388575,1.190467 -0.08852,0.132359 -0.263376,0.240655 -0.388575,0.240655 -0.125198,0 -0.300057,-0.108296 -0.388575,-0.240655 z m 8.666423,-2.231523 c -0.25107,-0.433547 -0.259631,-0.689589 -0.03596,-1.075813 0.370521,-0.639807 0.554984,-0.62867 1.101376,0.06649 0.420161,0.534556 0.413832,0.58008 -0.148531,1.068316 l -0.587391,0.509969 z m -9.813611,-2.03756 c -0.199533,-0.34455 -0.152745,-0.581217 0.192893,-0.975685 l 0.456328,-0.520792 0.353125,0.609773 c 0.286789,0.495218 0.291396,0.678514 0.02452,0.975684 -0.435614,0.485067 -0.708107,0.461456 -1.026868,-0.08898 z m 20.478031,-1.339986 c -0.881561,-1.243376 -0.902518,-2.223881 -0.07972,-3.730187 l 0.760371,-1.392026 h 1.526441 c 1.629076,0 2.172552,0.283312 2.61732,1.364403 0.739906,1.798477 -0.1345,3.644525 -1.726279,3.644525 -0.491094,0 -1.296622,0.155889 -1.79006,0.346422 -0.860113,0.332118 -0.914125,0.322491 -1.308069,-0.233137 z"
         id="path1025" />
      <path
         style="fill:#cc8213;stroke-width:0.248116"
         d="m 120.73816,93.344577 c -0.54197,-0.252343 -0.65755,-0.49509 -0.72212,-1.516548 -0.075,-1.185626 -0.0459,-1.241349 1.15999,-2.222268 1.07812,-0.877009 1.35071,-0.989078 2.12379,-0.873138 2.0819,0.312219 2.22721,1.661695 0.38496,3.575068 -1.31857,1.369483 -1.83898,1.55261 -2.94662,1.036886 z M 60.133589,92.064505 c -0.139549,-0.241939 -0.384226,-0.889078 -0.543726,-1.438087 -0.262256,-0.902714 -0.223005,-1.124435 0.410341,-2.317843 0.648087,-1.221186 0.780267,-1.33072 1.771709,-1.468117 1.652351,-0.228989 2.241789,-0.06062 2.885484,0.824214 0.691366,0.95037 0.773085,2.343849 0.197747,3.372032 -0.384074,0.68638 -0.619462,0.786435 -2.44724,1.040218 -0.49684,0.06898 -1.154725,0.193388 -1.461968,0.27645 -0.393043,0.106259 -0.633831,0.02063 -0.812347,-0.288867 z M 36.381496,92.00612 c -0.525342,-0.300049 -0.858191,-2.0357 -0.539759,-2.814591 0.393427,-0.962341 1.531654,-1.97954 2.215068,-1.97954 0.793416,0 1.122236,0.660838 1.122236,2.255377 0,1.227173 -0.05618,1.354734 -0.709771,1.611582 -0.390374,0.153409 -0.943856,0.46817 -1.229958,0.699471 -0.316625,0.255973 -0.652308,0.345079 -0.857816,0.227701 z m 10.838825,-1.379943 c -0.25862,-0.427073 0.11602,-1.506025 0.52293,-1.506025 0.122213,0 0.352935,0.265156 0.512716,0.589238 0.222137,0.450554 0.213395,0.675106 -0.03714,0.954082 -0.423333,0.471393 -0.696649,0.461184 -0.99851,-0.0373 z m 26.366233,-2.977598 c -0.285772,-0.329356 -0.529138,-0.954558 -0.742821,-1.908287 -0.07154,-0.319295 0.167733,-1.129263 0.5624,-1.903817 0.684185,-1.342746 0.692341,-1.348718 2.056719,-1.506256 0.834412,-0.09634 1.576146,-0.05611 1.897713,0.102931 1.207264,0.597095 1.681068,2.703879 0.9157,4.071667 -0.376857,0.673481 -0.609982,0.777822 -2.318191,1.037568 -0.425863,0.06476 -1.071721,0.18654 -1.43524,0.27063 -0.416258,0.09629 -0.762874,0.03542 -0.93628,-0.164436 z m -55.067071,-2.47702 c -0.278674,-0.31031 -0.239305,-0.456194 0.241381,-0.894451 0.558875,-0.509541 0.584133,-0.511519 0.936626,-0.0733 0.704977,0.876419 -0.425792,1.805367 -1.178007,0.967755 z m 5.188153,-0.796767 c -0.39205,-0.676985 0.359799,-1.212483 0.944148,-0.672461 0.343617,0.317554 0.35841,0.449687 0.08449,0.754703 -0.438476,0.488253 -0.710871,0.466474 -1.028641,-0.08224 z M 125.39301,84.126905 c -0.14695,-0.253748 -0.26718,-0.964047 -0.26718,-1.578445 0,-0.985356 0.12182,-1.22966 1.03307,-2.071783 0.97387,-0.899994 1.0663,-0.934349 1.61311,-0.599514 0.82702,0.50642 1.17827,2.350461 0.60241,3.162664 -0.23177,0.326897 -0.57494,0.594357 -0.7626,0.594357 -0.18766,0 -0.55141,0.214668 -0.80835,0.47704 -0.58908,0.601553 -1.06809,0.606877 -1.41046,0.01567 z m -5.16168,-0.483457 -0.76976,-0.761519 0.55778,-0.697215 c 0.65992,-0.824877 1.04797,-0.87006 1.76684,-0.205723 0.67026,0.619416 0.57268,1.597609 -0.2068,2.073159 -0.53984,0.329351 -0.62951,0.302165 -1.34806,-0.408702 z M 38.404745,82.322322 c -0.256813,-0.28597 -0.254655,-0.431997 0.01076,-0.727533 0.281467,-0.31342 0.386027,-0.319872 0.686333,-0.04235 0.345795,0.319565 0.21903,1.12766 -0.176896,1.12766 -0.109387,0 -0.343469,-0.161001 -0.520187,-0.35778 z M 15.549247,78.843166 c -0.223848,-0.334721 1.398899,-1.887553 1.972538,-1.887553 0.782299,0 0.815704,0.746574 0.06577,1.469958 -0.71018,0.68504 -1.720963,0.892121 -2.038309,0.417595 z m -2.386533,-4.797501 c -0.445944,-0.412118 -0.383559,-0.770686 0.222236,-1.277337 0.455257,-0.38075 0.566324,-0.394677 0.770343,-0.0966 0.431307,0.630157 0.103723,1.660159 -0.528002,1.660159 -0.08517,0 -0.294232,-0.128801 -0.464577,-0.286224 z m -0.393245,-3.722137 c -0.478187,-0.488308 -0.554368,-0.902904 -0.202803,-1.103703 0.328241,-0.187474 1.05347,0.920503 0.825571,1.261279 -0.13761,0.205769 -0.309563,0.162261 -0.622768,-0.157576 z m 70.186947,-3.496639 c -0.548374,-0.773438 -0.53082,-0.899616 0.215283,-1.547373 0.722771,-0.627501 1.216748,-0.537682 1.834466,0.333561 0.4007,0.565155 0.401356,0.652158 0.0091,1.20542 -0.551136,0.777334 -1.51088,0.781245 -2.058839,0.0084 z M 76.869254,52.99785 c -0.272622,-0.470763 -0.262024,-0.653613 0.06272,-1.082084 l 0.390781,-0.515595 0.402301,0.530798 c 0.284835,0.375811 0.330121,0.655445 0.155091,0.957679 -0.396909,0.685379 -0.660719,0.713877 -1.010893,0.109202 z"
         id="path1023" />
      <path
         style="fill:#c87d13;stroke-width:0.248116"
         d="m 121.79206,93.584545 c 0.0591,-0.03712 0.33983,-0.224956 0.62374,-0.417411 0.47748,-0.323674 0.48963,-0.318613 0.16197,0.06749 -0.19482,0.229575 -0.47551,0.41741 -0.62374,0.41741 -0.14823,0 -0.22112,-0.03037 -0.16197,-0.06749 z m -1.51978,-1.244368 c 0.005,-0.393558 0.0631,-0.525684 0.12854,-0.293611 0.0654,0.232073 0.0611,0.554075 -0.01,0.715561 -0.0707,0.161485 -0.12424,-0.02839 -0.11898,-0.42195 z m 3.30496,-0.477041 c 0.48156,-0.459151 0.93363,-0.834821 1.00461,-0.834821 0.071,0 -0.26495,0.37567 -0.74651,0.834821 -0.48155,0.459152 -0.93363,0.834822 -1.0046,0.834822 -0.071,0 0.26495,-0.37567 0.7465,-0.834822 z m -63.373787,0.103392 c -0.09357,-0.139914 -0.114771,-0.305545 -0.04712,-0.368068 0.06765,-0.06252 0.191782,0.05195 0.275842,0.254389 0.174521,0.420299 0.02578,0.494229 -0.228727,0.113679 z m 2.846424,-0.399782 c 0.566018,-0.05331 1.204811,-0.223107 1.419542,-0.377313 0.340625,-0.244619 0.345243,-0.22714 0.03619,0.137033 -0.247939,0.292163 -0.673884,0.405379 -1.419541,0.377315 l -1.065317,-0.0401 z M 36.102236,91.127699 c 0.01239,-0.277864 0.07354,-0.334381 0.155933,-0.144106 0.07456,0.17218 0.06539,0.377906 -0.02036,0.457164 -0.08576,0.07926 -0.146766,-0.06162 -0.135559,-0.313058 z m 84.764974,-1.053465 c 0.55446,-0.524745 1.06618,-0.954082 1.13715,-0.954082 0.071,0 -0.3246,0.429337 -0.87905,0.954082 -0.55446,0.524744 -1.06618,0.954081 -1.13716,0.954081 -0.071,0 0.3246,-0.429337 0.87906,-0.954081 z m -73.598052,0.347493 c -0.08406,-0.202437 -0.09517,-0.421363 -0.02467,-0.486501 0.07048,-0.06514 0.190105,0.100491 0.265821,0.368068 0.160834,0.568378 -0.01786,0.656144 -0.241142,0.118433 z m 77.381232,-0.108973 c 0,-0.327966 0.0586,-0.462133 0.13018,-0.29815 0.0716,0.163982 0.0716,0.432318 0,0.5963 -0.0716,0.163983 -0.13018,0.02982 -0.13018,-0.29815 z M 35.874077,89.954973 c 0.0053,-0.393558 0.06311,-0.525684 0.128543,-0.293611 0.06544,0.232073 0.06114,0.554076 -0.0095,0.715561 -0.0707,0.161486 -0.12424,-0.02839 -0.11898,-0.42195 z m 23.620026,0.119499 c -0.07421,-0.262243 -0.05432,-0.522839 0.04419,-0.579106 0.09851,-0.05627 0.202452,0.158294 0.230977,0.476802 0.06279,0.701176 -0.08967,0.757858 -0.275172,0.102304 z M 38.991238,89.358673 c 0,-0.590338 0.05033,-0.83184 0.111852,-0.536671 0.06152,0.295169 0.06152,0.778172 0,1.073341 -0.06152,0.295169 -0.111852,0.05367 -0.111852,-0.53667 z m 8.705052,0.23852 c -0.232621,-0.138929 -0.264455,-0.232674 -0.07976,-0.234869 0.169065,-0.0019 0.379172,0.103683 0.466905,0.234869 0.198039,0.29613 0.108691,0.29613 -0.387148,0 z m 17.333349,-0.23852 c 0,-0.327966 0.05858,-0.462134 0.130183,-0.298151 0.0716,0.163983 0.0716,0.432318 0,0.596301 -0.0716,0.163983 -0.130183,0.02981 -0.130183,-0.29815 z m -28.94778,-0.454842 c 0,-0.217748 1.777098,-1.81031 1.869691,-1.675539 0.0389,0.05663 -0.365862,0.494396 -0.899478,0.972817 -0.533619,0.478424 -0.970213,0.794648 -0.970213,0.702722 z m 23.76107,0.147188 c -0.0088,-0.103615 0.21864,-0.613453 0.505431,-1.132971 l 0.521444,-0.944579 1.607869,0.04596 1.607871,0.04596 -1.56766,0.08359 c -1.55335,0.08283 -1.572643,0.09275 -2.113302,1.087014 -0.300102,0.551881 -0.552847,0.918642 -0.561653,0.815026 z m 62.766441,-0.09529 c 0.24842,-0.05999 0.65493,-0.05999 0.90335,0 0.24842,0.06 0.0452,0.109082 -0.45167,0.109082 -0.49684,0 -0.7001,-0.04909 -0.45168,-0.109082 z M 38.550388,87.758947 c -0.140065,-0.339939 -0.11042,-0.367335 0.144483,-0.133523 0.17639,0.161798 0.255691,0.35426 0.176225,0.427698 -0.07947,0.07344 -0.223785,-0.05894 -0.320708,-0.294175 z M 73.731313,87.51014 c -0.32104,-0.378308 -0.311912,-0.386744 0.09745,-0.09006 0.429928,0.311596 0.56665,0.507466 0.354225,0.507466 -0.05359,0 -0.256847,-0.187835 -0.451673,-0.41741 z m 3.409711,-0.365645 c 0.05915,-0.03712 0.339831,-0.224956 0.623739,-0.417411 0.477485,-0.323674 0.489631,-0.318613 0.161972,0.06749 -0.194825,0.229575 -0.475508,0.41741 -0.623739,0.41741 -0.148231,0 -0.221118,-0.03037 -0.161972,-0.06749 z m -4.130706,-1.264244 c 0.01239,-0.277864 0.07354,-0.334381 0.155933,-0.144107 0.07456,0.172181 0.06539,0.377907 -0.02036,0.457165 -0.08576,0.07926 -0.146765,-0.06162 -0.135559,-0.313058 z m 5.161969,0 c 0.01239,-0.277864 0.07354,-0.334381 0.155933,-0.144107 0.07456,0.172181 0.06539,0.377907 -0.02036,0.457165 -0.08576,0.07926 -0.146765,-0.06162 -0.135558,-0.313058 z M 18.781152,85.175536 c -0.276963,-0.308405 -0.264882,-0.437211 0.07004,-0.746724 0.432837,-0.400006 0.970466,-0.253981 0.970466,0.263584 0,0.172975 -0.158807,0.436299 -0.352904,0.585167 -0.268927,0.206258 -0.432547,0.181981 -0.687599,-0.102027 z m 0.782404,-0.482088 c 0,-0.393576 -0.40791,-0.46007 -0.645246,-0.105183 -0.21048,0.314732 0.09813,0.761374 0.404982,0.586114 0.132145,-0.07547 0.240264,-0.291894 0.240264,-0.480931 z m 53.736516,-0.45773 c 0.308838,-0.587459 0.605791,-1.027198 0.659899,-0.977197 0.116758,0.107904 -0.926127,2.045305 -1.100971,2.045305 -0.06625,0 0.132237,-0.480649 0.441072,-1.068108 z m 5.130314,0.690452 c 0.01239,-0.277865 0.07354,-0.334382 0.155933,-0.144107 0.07456,0.172181 0.06539,0.377907 -0.02036,0.457165 -0.08576,0.07926 -0.146765,-0.06162 -0.135559,-0.313058 z M 23.822181,84.349745 c -0.203499,-0.304293 0.06695,-0.716661 0.466905,-0.71191 0.187676,0.0021 0.159525,0.09007 -0.07228,0.225552 -0.20882,0.122044 -0.298736,0.296698 -0.199812,0.388118 0.09893,0.09142 0.385922,0.01677 0.637772,-0.165922 0.416379,-0.302016 0.425783,-0.294281 0.103684,0.08527 -0.39995,0.47129 -0.70211,0.529024 -0.936267,0.178891 z M 125.64923,84.238504 c -0.17275,-0.192369 -0.27408,-0.457196 -0.22517,-0.588504 0.0489,-0.131308 0.22317,0.02608 0.38726,0.349761 0.34013,0.67093 0.29101,0.743278 -0.16209,0.238743 z m -5.32274,-0.66395 c -0.48749,-0.532101 -0.48728,-0.533382 0.0245,-0.150385 0.28391,0.212457 0.69041,0.445487 0.90334,0.517839 0.3286,0.111659 0.32489,0.134404 -0.0245,0.150385 -0.22642,0.01035 -0.63292,-0.222671 -0.90334,-0.517839 z m 6.39289,0.154384 c 0.2313,-0.213755 0.5443,-0.349353 0.69555,-0.30133 0.15126,0.04802 -0.038,0.222914 -0.42054,0.388645 -0.64283,0.278487 -0.66368,0.271868 -0.27501,-0.08732 z M 77.697286,83.159621 c -0.213177,-0.315457 -0.680085,-0.480051 -1.53882,-0.54246 l -1.232786,-0.08959 1.185965,-0.04299 c 0.89907,-0.03259 1.299322,0.07276 1.65455,0.43551 0.257722,0.263176 0.416507,0.526631 0.352855,0.585453 -0.06365,0.05882 -0.253445,-0.09684 -0.421764,-0.345917 z m 47.469294,-0.718039 c 0,-0.327966 0.0586,-0.462133 0.13019,-0.298151 0.0716,0.163983 0.0716,0.432318 0,0.596301 -0.0716,0.163983 -0.13019,0.02981 -0.13019,-0.29815 z m 3.13025,-0.596301 c 0.002,-0.655931 0.0521,-0.895957 0.11139,-0.533391 0.0593,0.362565 0.0577,0.899236 -0.004,1.192601 -0.0613,0.293366 -0.1098,-0.0033 -0.10786,-0.65921 z m -90.003059,0.384807 c -0.07779,-0.116321 0.02116,-0.336204 0.219887,-0.488623 0.275244,-0.211103 0.407049,-0.208763 0.553234,0.0098 0.117303,0.175403 0.083,0.224755 -0.08824,0.126952 -0.15408,-0.088 -0.347664,-0.05904 -0.430186,0.06436 -0.08252,0.123396 0.05463,0.273697 0.304788,0.334002 0.406627,0.09802 0.408575,0.112574 0.0184,0.137311 -0.240042,0.01522 -0.500089,-0.0675 -0.57788,-0.183825 z M 121.3986,82.076216 c -0.27555,-0.192607 -0.37688,-0.350195 -0.22518,-0.350195 0.15171,0 0.42042,0.161001 0.59713,0.35778 0.40191,0.447541 0.27548,0.444962 -0.37195,-0.0076 z m 3.98533,-0.545429 c 0,-0.279503 1.65771,-1.712929 1.98095,-1.712929 0.1533,0 0.43813,0.178244 0.63296,0.396101 0.32468,0.363066 0.30459,0.368039 -0.24091,0.05963 -0.5557,-0.314177 -0.65403,-0.27744 -1.48406,0.554476 -0.48892,0.490024 -0.88894,0.806247 -0.88894,0.702722 z M 16.337325,77.671174 c 0.256934,-0.262372 0.525224,-0.47704 0.596201,-0.47704 0.07098,0 -0.08117,0.214668 -0.338102,0.47704 -0.256933,0.262373 -0.525224,0.477041 -0.596201,0.477041 -0.07098,0 0.08117,-0.214668 0.338102,-0.477041 z m 1.350169,-0.01913 c 0.09127,-0.322527 0.20826,-0.430649 0.272694,-0.252009 0.06207,0.172078 -0.0099,0.426274 -0.159844,0.564879 -0.191527,0.176998 -0.225117,0.08387 -0.11285,-0.31287 z M 13.200158,73.7253 c -0.08406,-0.202437 -0.08041,-0.434995 0.0081,-0.516793 0.08852,-0.0818 0.160936,0.04165 0.160936,0.274325 0,0.284345 0.131331,0.37648 0.400553,0.281006 0.229688,-0.08145 0.333288,-0.04147 0.242866,0.09374 -0.234797,0.351093 -0.639073,0.285271 -0.812455,-0.132278 z m 0.572777,-0.754617 c -0.140067,-0.339939 -0.11042,-0.367335 0.144482,-0.133523 0.176389,0.161798 0.255691,0.35426 0.176225,0.427698 -0.07946,0.07344 -0.223783,-0.05894 -0.320707,-0.294175 z m -1.024367,-2.907019 c -0.267809,-0.273478 -0.342895,-0.513368 -0.188318,-0.601653 0.141393,-0.08076 0.33003,-0.03775 0.419193,0.09558 0.08916,0.133326 0.06815,0.244054 -0.04669,0.246063 -0.114843,0.0019 -0.03795,0.103508 0.170867,0.225552 0.20882,0.122044 0.314574,0.28206 0.235008,0.355591 -0.07957,0.07353 -0.345093,-0.07098 -0.59006,-0.321133 z m 70.532389,-3.066277 c -0.307811,-0.362718 -0.303498,-0.382542 0.03292,-0.151287 0.212931,0.146368 0.561364,0.325729 0.774296,0.39858 0.323849,0.1108 0.318465,0.135534 -0.03292,0.151286 -0.231037,0.01035 -0.57947,-0.169003 -0.774296,-0.398579 z m 1.536218,-0.852906 c -0.09603,-0.435257 -0.06006,-0.592094 0.101551,-0.442746 0.137639,0.127198 0.204556,0.430505 0.148704,0.674015 -0.07522,0.327923 -0.140117,0.267944 -0.250255,-0.231269 z m -2.130466,0.104741 c -0.07779,-0.116321 0.06053,-0.357823 0.30739,-0.536671 0.396483,-0.28725 0.411463,-0.280888 0.128448,0.05455 -0.176212,0.208848 -0.243963,0.45035 -0.15056,0.536671 0.09341,0.08632 0.09925,0.156944 0.01298,0.156944 -0.08626,0 -0.220481,-0.09517 -0.298272,-0.211494 z M 77.031244,53.181014 c -0.0934,-0.08632 -0.168047,-0.273223 -0.165874,-0.415343 0.0021,-0.142117 0.112071,-0.100402 0.244215,0.0927 0.20557,0.300404 0.265067,0.291355 0.41207,-0.06267 0.0945,-0.22757 0.01363,-0.600232 -0.179688,-0.828136 -0.318006,-0.37489 -0.308462,-0.383181 0.100173,-0.08702 0.24842,0.180047 0.451672,0.462073 0.451672,0.626726 0,0.381929 -0.638592,0.880722 -0.862568,0.673739 z"
         id="path1021" />
    </g>
  </g>
</svg>
